<svg width="57" height="72" viewBox="0 0 57 72" fill="none" xmlns="http://www.w3.org/2000/svg">
<path d="M28.3125 1.2424L55.625 47.2424H1L28.3125 1.2424Z" fill="#000080"/>
<path d="M48.7783 23.4925C49.0368 23.4236 49.3124 23.4614 49.543 23.597C49.7736 23.7326 49.9404 23.9548 50.0059 24.2142L51.2227 29.0316C51.3567 29.5625 51.0382 30.1031 50.5088 30.2435C48.2029 30.8549 45.777 31.3635 43.2324 31.7698C41.0096 32.1248 38.8168 32.4012 36.6543 32.6009V63.0003C36.6541 63.5523 36.2063 64.0001 35.6543 64.0003H30.7881C30.2359 64.0003 29.7882 63.5525 29.7881 63.0003V49.5472H26.9209V63.0003C26.9207 63.5525 26.4731 64.0003 25.9209 64.0003H21.0547C20.5026 64.0001 20.0548 63.5524 20.0547 63.0003V32.6009C17.8922 32.4012 15.6994 32.1248 13.4766 31.7698C10.932 31.3635 8.50605 30.8549 6.2002 30.2435C5.67083 30.1031 5.35224 29.5625 5.48633 29.0316L6.70312 24.2142L6.73242 24.1185C6.81137 23.9004 6.96429 23.7156 7.16602 23.597C7.3966 23.4614 7.67222 23.4236 7.93066 23.4925C11.0395 24.3211 14.3547 24.9246 17.877 25.3011C21.4112 25.6788 24.9036 25.8675 28.3545 25.8675C31.8054 25.8675 35.2978 25.6788 38.832 25.3011C42.3543 24.9246 45.6694 24.3211 48.7783 23.4925ZM28.3545 13.8235C29.9568 13.8236 31.3554 14.3993 32.4951 15.5276C33.6352 16.6563 34.2206 18.0456 34.2207 19.6409C34.2207 21.2363 33.6351 22.6255 32.4951 23.7542C31.3553 24.8826 29.9568 25.4593 28.3545 25.4593C26.7522 25.4593 25.3537 24.8826 24.2139 23.7542C23.0739 22.6255 22.4883 21.2363 22.4883 19.6409C22.4883 18.0456 23.0738 16.6563 24.2139 15.5276C25.3536 14.3993 26.7522 13.8235 28.3545 13.8235Z" fill="#FFD262" stroke="black" stroke-width="2" stroke-linejoin="round"/>
</svg>
