<svg width="40" height="60" viewBox="0 0 40 60" fill="none" xmlns="http://www.w3.org/2000/svg">
<path d="M36.8334 32.6763C36.8334 33.2286 36.3857 33.6763 35.8334 33.6763C32.8225 33.6763 30.0972 33.0628 27.681 31.811C25.9183 30.8978 24.3414 29.7925 22.9535 28.4956L21.9105 33.5386L26.6703 37.9927C26.8723 38.1817 26.9876 38.4465 26.9877 38.7231V56.8628C26.9877 57.4149 26.5397 57.8625 25.9877 57.8628H21.0638C20.5117 57.8626 20.0638 57.415 20.0638 56.8628V41.6421L16.5297 38.9966L12.4398 57.0835C12.3367 57.5392 11.9315 57.8628 11.4642 57.8628H6.29529C5.99534 57.8628 5.7108 57.7278 5.52087 57.4956C5.3311 57.2635 5.25542 56.9584 5.31482 56.6646L11.847 24.3423L9.75623 25.1411V32.6763C9.75623 33.2286 9.30851 33.6763 8.75623 33.6763H3.83337C3.28109 33.6763 2.83337 33.2286 2.83337 32.6763V21.3091C2.83346 20.906 3.07575 20.5428 3.44763 20.3872L15.8783 15.187C16.5575 14.9013 17.2717 14.7352 18.016 14.688C18.4581 14.66 18.8923 14.6819 19.3168 14.7524C18.8912 14.5032 18.4905 14.196 18.1176 13.8296C16.9656 12.6977 16.3715 11.303 16.3715 9.69971C16.3715 8.09652 16.9656 6.70263 18.1176 5.5708C19.269 4.43945 20.6798 3.86279 22.2953 3.86279C23.9107 3.86288 25.3217 4.43952 26.473 5.5708C27.6247 6.70257 28.2181 8.09668 28.2181 9.69971C28.2181 11.3029 27.6249 12.6977 26.473 13.8296C25.3217 14.9609 23.9107 15.5375 22.2953 15.5376C21.9529 15.5376 21.6197 15.5091 21.2963 15.4575C21.573 15.6066 21.8419 15.7738 22.1029 15.9585C22.7266 16.3997 23.2356 16.9604 23.6302 17.6284H23.6312L26.0922 21.4985L26.0951 21.5015C27.0724 23.0527 28.4003 24.3354 30.099 25.3481C31.7545 26.3351 33.6566 26.8394 35.8334 26.8394C36.3856 26.8394 36.8333 27.2872 36.8334 27.8394V32.6763Z" fill="#FFD262" stroke="black" stroke-width="2" stroke-linejoin="round"/>
</svg>
