<svg width="20" height="17" viewBox="0 0 20 17" fill="none" xmlns="http://www.w3.org/2000/svg">
<path d="M3.7168 10.5811C3.70565 10.7367 3.69824 10.8938 3.69824 11.0527C3.69827 11.9203 3.86429 12.7399 4.19727 13.5088C4.5281 14.2726 4.97786 14.9398 5.5459 15.5078C6.1059 16.0677 6.76244 16.5124 7.5127 16.8418H0L3.7168 10.5811ZM20 16.8418H12.4893C13.2395 16.5123 13.8961 16.0678 14.4561 15.5078C15.0241 14.9398 15.4739 14.2726 15.8047 13.5088C16.1376 12.74 16.3037 11.9202 16.3037 11.0527C16.3037 10.8952 16.2961 10.7393 16.2852 10.585L20 16.8418ZM14.7178 13.4941C14.3284 14.2464 13.8026 14.8664 13.1396 15.3564C12.5341 15.804 11.8732 16.0981 11.1572 16.2461C11.3516 15.949 11.5477 15.6094 11.7383 15.2246C12.0176 14.6606 12.2508 14.0831 12.4424 13.4941H14.7178ZM7.54297 13.4941C7.68735 14.0735 7.89832 14.6448 8.17676 15.207C8.36654 15.5902 8.57003 15.933 8.78613 16.2344C8.09266 16.0826 7.45143 15.7918 6.8623 15.3564C6.19933 14.8664 5.67355 14.2464 5.28418 13.4941H7.54297ZM11.4248 13.4941C11.2695 14.0123 11.0819 14.4814 10.8584 14.9004C10.6293 15.3299 10.3395 15.7725 9.99316 16.2314C9.65597 15.8132 9.37743 15.3949 9.16211 14.9736C8.94491 14.5486 8.75305 14.0551 8.58105 13.4941H11.4248ZM7.34082 9.59766C7.30815 9.80427 7.28092 10.0068 7.26465 10.2061C7.24094 10.4964 7.22852 10.7788 7.22852 11.0527C7.22852 11.3266 7.24095 11.6091 7.26465 11.8994C7.2809 12.0983 7.30725 12.3006 7.33984 12.5068H4.88086C4.82893 12.3229 4.78576 12.1211 4.75195 11.9014C4.70744 11.612 4.68556 11.3291 4.68555 11.0527C4.68555 10.7762 4.70741 10.4927 4.75195 10.2031C4.78579 9.98332 4.82888 9.78162 4.88086 9.59766H7.34082ZM11.668 9.59766C11.7052 9.81779 11.7348 10.0287 11.752 10.2305C11.7745 10.4954 11.7861 10.7696 11.7861 11.0527C11.7861 11.3359 11.7745 11.61 11.752 11.875C11.7348 12.0766 11.7052 12.2869 11.668 12.5068H8.33398C8.29677 12.2869 8.26716 12.0766 8.25 11.875C8.22745 11.61 8.21583 11.3359 8.21582 11.0527C8.21582 10.7696 8.22746 10.4954 8.25 10.2305C8.26718 10.0286 8.2967 9.81784 8.33398 9.59766H11.668ZM15.1211 9.59766C15.1731 9.78158 15.2162 9.98338 15.25 10.2031C15.2945 10.4926 15.3164 10.7763 15.3164 11.0527C15.3164 11.3291 15.2945 11.612 15.25 11.9014C15.2162 12.1211 15.173 12.3229 15.1211 12.5068H12.6611C12.6937 12.3006 12.7211 12.0984 12.7373 11.8994C12.761 11.6091 12.7725 11.3266 12.7725 11.0527C12.7725 10.7788 12.761 10.4964 12.7373 10.2061C12.721 10.0068 12.6928 9.80428 12.6602 9.59766H15.1211ZM8.82129 5.85742C8.59673 6.18825 8.386 6.54941 8.19336 6.94238C7.92592 7.48799 7.71455 8.04508 7.55273 8.61133H5.28516C5.68066 7.84827 6.19585 7.23177 6.8291 6.75684C7.40646 6.3239 8.06971 6.02448 8.82129 5.85742ZM10 5.8623C10.3112 6.24814 10.5841 6.66181 10.8135 7.10645C11.045 7.5554 11.2453 8.05746 11.4189 8.61133H8.58203C8.75573 8.05728 8.95687 7.55551 9.18848 7.10645C9.41768 6.66211 9.68906 6.24791 10 5.8623ZM11.1797 5.8584C11.923 6.02486 12.5848 6.32075 13.166 6.74902C13.8042 7.21936 14.3225 7.83851 14.7188 8.61133H12.4492C12.2874 8.04513 12.076 7.48794 11.8086 6.94238C11.616 6.54957 11.4041 6.18913 11.1797 5.8584ZM13.4229 5.76465C13.1202 5.56926 12.7985 5.39693 12.457 5.24902C11.6883 4.9161 10.8684 4.75007 10.001 4.75C9.13352 4.75 8.31373 4.91615 7.54492 5.24902C7.20188 5.39758 6.87899 5.5711 6.5752 5.76758L10 0L13.4229 5.76465Z" fill="white"/>
</svg>
