<svg width="59" height="58" viewBox="0 0 59 58" fill="none" xmlns="http://www.w3.org/2000/svg">
<path d="M55.1868 31.4019C55.1868 31.9542 54.7391 32.4019 54.1868 32.4019C51.3773 32.4019 48.7347 31.8172 46.2727 30.6422C44.4597 29.7769 42.8546 28.7016 41.4631 27.4156L40.4905 32.2672L45.1809 36.7242C45.3795 36.913 45.4924 37.1748 45.4924 37.4488V55.5885C45.4924 56.1407 45.0446 56.5884 44.4924 56.5885H39.6448C39.0925 56.5885 38.6448 56.1408 38.6448 55.5885V41.5045L35.1389 38.1734L33.1067 47.1031C32.9861 47.6324 32.4649 47.9695 31.9329 47.8619L15.2092 44.4752C14.6688 44.3658 14.3189 43.84 14.427 43.2994L15.3967 38.4615C15.4491 38.2004 15.6032 37.9707 15.8254 37.8238C16.0477 37.6769 16.3195 37.6251 16.5803 37.6793L27.2249 39.8922L30.554 23.0768L28.5256 23.8639V31.4019C28.5256 31.9542 28.0779 32.4019 27.5256 32.4019H22.679C22.1267 32.4019 21.679 31.9542 21.679 31.4019V20.0348C21.679 19.6351 21.9172 19.2735 22.2844 19.1158L31.8577 15.0045L31.8596 15.0035C33.2771 14.3973 34.3721 13.9799 35.1106 13.7789C35.8444 13.5792 36.5498 13.4723 37.2209 13.4723C37.4847 13.4723 37.7443 13.4905 37.9993 13.526C37.5458 13.2673 37.1203 12.9421 36.7268 12.5494C35.5914 11.4163 35.009 10.0235 35.009 8.42538C35.0091 6.82726 35.5913 5.43445 36.7268 4.30136C37.8623 3.16834 39.2571 2.58847 40.8567 2.58847C42.4563 2.58849 43.8511 3.16832 44.9866 4.30136C46.1221 5.43445 46.7043 6.82727 46.7043 8.42538C46.7043 10.0235 46.122 11.4163 44.9866 12.5494C43.8511 13.6825 42.4564 14.2633 40.8567 14.2633C40.5471 14.2633 40.2453 14.2401 39.9514 14.1969C40.0023 14.2258 40.0544 14.2531 40.1047 14.2838C40.9642 14.8079 41.6621 15.5029 42.1887 16.36L44.6125 20.2301L44.6145 20.233C45.577 21.7846 46.8848 23.0655 48.5549 24.0768C50.1815 25.0616 52.0489 25.565 54.1868 25.565C54.739 25.565 55.1867 26.0128 55.1868 26.565V31.4019Z" fill="#FFD262" stroke="black" stroke-width="2" stroke-linejoin="round"/>
<line x1="25.9629" y1="6.64648" x2="0.999943" y2="6.64648" stroke="black" stroke-width="2" stroke-linecap="round"/>
<line x1="13.4443" y1="25.9058" x2="3.88879" y2="25.9058" stroke="black" stroke-width="2" stroke-linecap="round"/>
<line x1="14.4075" y1="16.2761" x2="6.77785" y2="16.2761" stroke="black" stroke-width="2" stroke-linecap="round"/>
</svg>
