<svg width="156" height="139" viewBox="0 0 156 139" fill="none" xmlns="http://www.w3.org/2000/svg">
<path d="M25.3346 80.6649V76.7672L22.0498 71.4637H23.4219L25.102 74.2379C25.4121 74.7567 25.7008 75.2756 25.9683 75.7944C26.2241 75.3132 26.5341 74.7714 26.8985 74.1688L28.5496 71.4637H29.8635L26.4624 76.7672V80.6649H25.3346Z" fill="#000080"/>
<path d="M35.2947 76.1835C35.2947 74.6563 35.6745 73.4617 36.4342 72.5997C37.1939 71.7336 38.1744 71.3005 39.376 71.3005C40.1627 71.3005 40.872 71.5035 41.5038 71.9093C42.1355 72.3152 42.6162 72.8822 42.9456 73.6102C43.2789 74.3341 43.4456 75.1563 43.4456 76.0768C43.4456 77.0099 43.2712 77.8447 42.9223 78.5811C42.5735 79.3175 42.0793 79.8761 41.4398 80.2569C40.8003 80.6335 40.1104 80.8218 39.3701 80.8218C38.5678 80.8218 37.8508 80.6125 37.2191 80.1941C36.5873 79.7757 36.1086 79.2046 35.7831 78.4807C35.4575 77.7568 35.2947 76.9911 35.2947 76.1835ZM36.4574 76.2024C36.4574 77.3112 36.7326 78.1857 37.283 78.8259C37.8372 79.4619 38.531 79.7799 39.3643 79.7799C40.2131 79.7799 40.9108 79.4577 41.4573 78.8133C42.0076 78.169 42.2828 77.2547 42.2828 76.0706C42.2828 75.3216 42.1646 74.6688 41.9282 74.1123C41.6956 73.5517 41.3526 73.1186 40.8992 72.8131C40.4496 72.5035 39.9438 72.3487 39.3818 72.3487C38.5833 72.3487 37.8954 72.6458 37.3179 73.2399C36.7443 73.8299 36.4574 74.8174 36.4574 76.2024Z" fill="#000080"/>
<path d="M55.2603 71.4637H56.3882V76.7798C56.3882 77.7045 56.2913 78.4388 56.0975 78.9828C55.9037 79.5267 55.5529 79.9703 55.0452 80.3134C54.5413 80.6523 53.8786 80.8218 53.0569 80.8218C52.2585 80.8218 51.6054 80.6732 51.0976 80.3761C50.5899 80.0791 50.2275 79.6502 50.0105 79.0895C49.7934 78.5246 49.6849 77.7547 49.6849 76.7798V71.4637H50.8128V76.7735C50.8128 77.5727 50.8806 78.1627 51.0163 78.5434C51.1558 78.92 51.3922 79.2108 51.7255 79.4159C52.0627 79.6209 52.4736 79.7234 52.958 79.7234C53.7875 79.7234 54.3785 79.5205 54.7312 79.1146C55.0839 78.7087 55.2603 77.9284 55.2603 76.7735V71.4637Z" fill="#000080"/>
<path d="M60.4555 72.6813V71.3696H61.5775V72.4052C61.5775 72.9659 61.5174 73.3696 61.3973 73.6165C61.2306 73.9554 60.9709 74.2107 60.6182 74.3822L60.3624 73.9366C60.5717 73.8446 60.7268 73.7002 60.8275 73.5035C60.9322 73.3027 60.9903 73.0286 61.002 72.6813H60.4555Z" fill="#000080"/>
<path d="M69.074 80.6649L65.7718 71.4637H66.9927L69.2077 78.148C69.386 78.6836 69.5352 79.1857 69.6554 79.6544C69.7872 79.1523 69.9403 78.6501 70.1147 78.148L72.4169 71.4637H73.568L70.2309 80.6649H69.074Z" fill="#000080"/>
<path d="M79.3655 80.6649V71.4637H85.5281V72.5495H80.4934V75.3676H85.2083V76.4471H80.4934V79.579H85.7258V80.6649H79.3655Z" fill="#000080"/>
<path d="M104.111 77.0559V75.9764L107.722 75.9701V79.3845C107.167 79.8615 106.596 80.2213 106.006 80.464C105.417 80.7025 104.813 80.8218 104.193 80.8218C103.355 80.8218 102.594 80.6293 101.908 80.2443C101.226 79.8552 100.71 79.2945 100.361 78.5623C100.012 77.83 99.8381 77.012 99.8381 76.1082C99.8381 75.2128 100.011 74.378 100.355 73.604C100.704 72.8257 101.204 72.2483 101.855 71.8717C102.507 71.4951 103.257 71.3068 104.105 71.3068C104.722 71.3068 105.278 71.4156 105.774 71.6332C106.274 71.8466 106.665 72.1458 106.948 72.5307C107.231 72.9157 107.446 73.4178 107.594 74.037L106.576 74.3383C106.448 73.8697 106.289 73.5014 106.099 73.2337C105.91 72.9659 105.638 72.7525 105.286 72.5935C104.933 72.4303 104.541 72.3487 104.111 72.3487C103.596 72.3487 103.15 72.4345 102.774 72.606C102.398 72.7734 102.094 72.9952 101.861 73.2713C101.633 73.5475 101.454 73.8508 101.326 74.1814C101.109 74.7504 101.001 75.3676 101.001 76.0329C101.001 76.853 101.131 77.5392 101.39 78.0915C101.654 78.6439 102.036 79.0539 102.536 79.3217C103.036 79.5895 103.567 79.7234 104.129 79.7234C104.617 79.7234 105.094 79.623 105.559 79.4221C106.024 79.2171 106.377 78.9995 106.617 78.7694V77.0559H104.111Z" fill="#000080"/>
<path d="M113.81 76.1835C113.81 74.6563 114.19 73.4617 114.949 72.5997C115.709 71.7336 116.689 71.3005 117.891 71.3005C118.678 71.3005 119.387 71.5035 120.019 71.9093C120.651 72.3152 121.131 72.8822 121.461 73.6102C121.794 74.3341 121.961 75.1563 121.961 76.0768C121.961 77.0099 121.786 77.8447 121.437 78.5811C121.088 79.3175 120.594 79.8761 119.955 80.2569C119.315 80.6335 118.625 80.8218 117.885 80.8218C117.083 80.8218 116.366 80.6125 115.734 80.1941C115.102 79.7757 114.624 79.2046 114.298 78.4807C113.972 77.7568 113.81 76.9911 113.81 76.1835ZM114.972 76.2024C114.972 77.3112 115.248 78.1857 115.798 78.8259C116.352 79.4619 117.046 79.7799 117.879 79.7799C118.728 79.7799 119.426 79.4577 119.972 78.8133C120.523 78.169 120.798 77.2547 120.798 76.0706C120.798 75.3216 120.68 74.6688 120.443 74.1123C120.211 73.5517 119.868 73.1186 119.414 72.8131C118.965 72.5035 118.459 72.3487 117.897 72.3487C117.098 72.3487 116.41 72.6458 115.833 73.2399C115.259 73.8299 114.972 74.8174 114.972 76.2024Z" fill="#000080"/>
<path d="M130.351 80.6649V72.5495H127.543V71.4637H134.299V72.5495H131.479V80.6649H130.351Z" fill="#000080"/>
<path d="M30.9113 128.824C70.2406 123.026 110.729 120.318 151.525 120.879C152.703 120.897 154.078 120.917 155.249 120.976C155.497 120.988 155.982 120.944 156.001 121.183C153.986 121.639 149.075 121.765 146.911 121.914C139.387 122.431 134.046 122.689 126.503 123.15C105.94 124.407 84.9029 125.918 64.7385 128.423C53.527 129.816 42.3872 131.878 31.341 133.769C26.7649 134.554 18.8901 135.752 14.9748 137.298C14.3075 137.561 13.7256 138.143 13.0764 138.347C9.35824 139.515 6.34986 134.753 9.16035 133.004C12.2106 131.106 26.2465 129.512 30.9113 128.824ZM31.2463 86.859C31.8322 86.3067 32.0978 85.4046 33.1525 85.7047L36.2844 87.6325C42.4921 87.0961 49.592 85.5147 55.7434 86.819C55.9937 86.8724 59.1055 87.7444 58.6047 88.2907V88.2878C58.2008 88.3073 57.7909 88.4055 57.383 88.4098C50.8914 88.4625 44.4629 89.7954 38.1203 91.0963C36.7549 91.3755 35.3287 91.4737 34.0002 91.9831C32.3649 92.6089 31.3039 95.0906 30.3156 96.442C28.4015 99.0606 26.2947 101.54 24.2541 104.056L24.1105 104.528C24.6707 104.989 25.3667 104.447 25.8752 104.321C31.5934 102.906 38.367 101.034 44.2639 101.3C44.9769 101.333 46.1367 101.696 46.7609 101.555C47.2299 101.448 49.8373 99.0872 50.55 98.6022C50.797 98.4347 52.1341 97.5559 52.2756 97.5172C52.694 97.4027 53.0549 97.9277 53.5822 97.8961C54.8162 97.825 56.1005 96.8862 57.5187 96.9811C58.0396 97.0175 59.6696 98.1338 60.0139 98.5387C61.3749 100.131 59.6449 102.482 59.1662 104.143C59.2316 104.345 59.8282 104.389 60.0285 104.39C62.8802 104.405 66.7842 102.577 69.6633 102.1C72.6107 99.4903 75.8602 97.3313 79.1027 95.1286C79.7072 94.7173 81.6595 93.0542 82.2102 93.1003C82.7605 93.1467 85.8144 94.5981 86.173 95.0358C86.7417 95.7302 86.747 96.104 86.2326 96.8415C85.1784 98.3528 83.4953 99.0231 82.2512 100.223C81.5995 100.853 81.119 102.381 80.1027 101.68C79.3138 101.135 79.4465 99.8119 78.2053 100.339C76.7963 100.937 73.893 103.662 72.7102 104.822C69.9627 107.513 67.4983 110.538 65.7209 113.962L65.6857 114.285C65.8148 114.61 66.5735 114.38 66.8322 114.282C67.9806 113.848 69.6057 112.968 70.7268 112.378C77.6879 108.707 84.2944 104.064 91.4387 100.658C93.4153 98.4905 95.2557 96.1775 97.2717 94.0426C97.5796 93.7156 98.9474 92.2408 99.1828 92.1706C100.114 91.8934 101.42 92.2954 102.275 92.7116C102.895 93.0135 103.026 93.235 102.819 93.9782C102.547 94.9566 100.761 96.9024 100.086 97.7936C97.7138 100.941 94.8243 104.658 93.0812 108.2C92.9366 108.492 92.5559 108.985 92.9543 109.164C95.9242 106.939 98.6305 104.394 101.527 102.073C104.629 99.5878 108.672 97.0897 111.476 94.4499C112.552 93.4379 112.962 91.983 114.743 92.2106C115.009 92.2439 117.13 93.313 117.236 93.485C117.817 94.4328 116.731 94.648 116.281 94.9606C114.783 96.0018 112.378 99.2725 111.091 100.797C109.804 102.321 105.891 106.584 105.475 108.185C105.415 108.412 105.417 108.602 105.461 108.829C107.348 107.658 109.005 106.138 110.827 104.865C113.84 102.763 117.041 100.959 120.46 99.5963C120.687 98.2794 120.759 97.5572 121.531 96.4352C124.49 92.1375 132.848 88.6803 137.735 87.1842C138.316 87.0066 139.597 86.5956 140.125 86.5378C140.288 86.5216 140.681 86.5426 140.798 86.6217C140.89 86.6828 141.962 88.2107 142.086 88.4245C142.528 89.1885 142.597 89.6027 142.323 90.4928C141.889 91.8981 140.726 90.8816 139.634 91.1335C135.926 91.9895 130.657 94.8857 127.499 97.0749C127.23 97.2603 125.128 98.7145 125.733 99.07C126.233 99.3657 128.003 99.4363 128.771 99.695C129.598 99.9738 131.257 100.931 131.746 101.67C132.115 102.223 132.127 103.199 132.95 102.881C133.774 102.562 135.038 101.614 135.908 101.153C139.69 99.1512 143.768 97.0938 147.763 95.5749C149.112 95.0634 151.177 94.225 152.512 93.8942C152.781 93.8283 152.992 93.7377 153.202 93.9919C153.22 94.3825 147.065 97.0637 146.226 97.5192C137.793 102.122 129.802 107.743 121.176 111.967C119.521 112.777 118.337 113.469 116.478 113.923C115.682 114.116 114.27 114.382 113.809 113.526C113.605 113.146 113.441 111.677 113.482 111.217C113.542 110.544 114.229 110.251 114.764 110.015C119.466 107.955 124.022 106.623 128.349 103.602C128.613 103.417 129.575 102.858 129.376 102.538C129.24 102.409 129.104 102.292 128.919 102.23C127.103 101.624 122.774 102.432 121.467 101.237C121.152 100.949 121.054 100.29 120.632 100.447C120.094 100.646 119.016 101.414 118.465 101.76C112.694 105.39 107.408 109.78 102.751 114.744C101.562 115.154 100.033 113.75 99.9465 112.56C99.7417 109.75 103.268 104.65 104.777 102.254C104.863 102.118 105.172 101.733 104.986 101.593C103.982 102.133 103.037 102.934 102.16 103.666C97.9473 107.187 94.0391 111.085 89.6721 114.432C87.9038 115.786 86.9005 116.779 84.7385 115.248C83.1358 114.113 83.943 112.127 84.6184 110.625C85.7058 108.206 87.615 105.923 89.1369 103.759C89.2939 103.263 87.9618 104.048 87.841 104.12C87.1565 104.536 86.558 105.155 85.8869 105.604C82.07 108.147 78.1792 110.651 74.4367 113.297C72.5082 114.661 69.2101 117.14 67.0617 117.926C65.6907 118.427 64.2304 118.695 63.1242 117.501C60.1113 114.246 61.6079 111.416 63.8918 108.296C64.5707 107.367 65.6493 106.397 66.2316 105.465C66.3177 105.327 66.4668 105.278 66.3869 105.06C66.2559 104.964 63.6877 105.665 63.3049 105.789C62.7922 105.954 62.1355 106.369 61.6184 106.543C59.8657 107.136 56.6415 107.671 55.3088 108.955C54.6759 109.564 54.1792 110.557 53.6916 111.19C53.1553 111.888 51.8961 112.755 51.1838 113.406C48.8261 115.559 44.9708 119.437 41.841 120.1C41.5298 120.165 41.1519 120.213 40.8361 120.201C39.73 120.163 37.4773 118.127 37.1516 117.078C35.8355 112.85 40.555 107.776 43.2492 104.958C43.5408 104.653 45.3476 103.063 45.3967 102.922C45.4172 102.862 45.4212 102.599 45.3078 102.61C44.1172 102.726 42.901 102.851 41.7316 103.113C38.172 103.907 33.8961 105.561 30.4035 106.744C27.163 107.842 23.7613 109.397 20.6037 110.801C17.3987 112.226 17.5948 113.137 15.5754 115.46C12.8362 118.608 9.68272 121.499 6.79414 124.521C5.86204 125.498 2.5793 128.883 2.14473 129.847C1.83356 130.533 2.31973 131.13 0.910351 131.076C0.0259955 131.042 0.0241547 129.841 0.00214746 129.152C-0.0433853 127.701 0.643101 126.146 1.30586 124.874C3.07561 121.479 5.50834 118.479 7.54121 115.258C7.5381 114.69 5.95633 114.59 5.54805 114.428C4.29223 113.925 3.32368 112.706 2.72676 111.536C3.04489 110.982 3.58989 111.333 4.00898 111.281C5.1271 111.138 6.92043 110.249 8.07148 109.872C9.60863 109.367 11.2157 109.027 12.6818 108.317C16.7786 103.285 20.8725 98.2496 25.1389 93.3639L25.1291 93.0602C24.3349 93.1888 23.4259 93.2827 22.6486 93.4538C20.3698 93.9541 17.9123 94.7788 15.7199 95.5954C14.6533 95.9904 10.1193 97.7169 9.5998 98.3717C9.28532 98.767 9.43376 99.758 8.40937 99.9254C8.02497 99.9872 6.68175 99.559 6.38105 99.3161C6.0237 99.0253 4.93458 96.7071 5.32344 96.3659C12.679 93.2484 20.3505 90.9026 28.216 89.4782C29.2528 88.6521 30.282 87.7662 31.2463 86.859ZM46.9475 106.505C46.6669 106.507 46.408 106.857 46.2375 107.066C45.5297 107.935 42.734 112.842 42.5598 113.803C42.5096 114.076 42.6258 114.205 42.6994 114.439V114.437C45.3902 112.568 48.306 111.021 50.6066 108.644C49.8341 108.108 49.0358 108.115 48.2316 107.517C47.7988 107.194 47.5423 106.612 46.9475 106.505ZM57.758 101.092C58.1733 100.154 58.8575 98.3835 57.0822 98.8698C56.8464 98.9349 55.9245 99.4045 55.7541 99.5592C55.3034 99.968 55.5371 100.301 55.4357 100.724C55.2728 101.388 53.4933 103.092 52.7736 102.453C53.1038 102.144 52.9638 101.732 52.927 101.333C52.5524 101.028 51.1129 102.356 50.8381 102.646C50.3568 103.152 48.9838 104.705 49.7121 105.3C50.4406 105.896 53.4213 105.216 54.3859 105.214C54.6971 105.12 54.9907 104.635 55.2141 104.408L55.2111 104.409C56.0766 103.53 57.2628 102.208 57.758 101.092Z" fill="#000080"/>
<path d="M55.7389 37.7842C55.5413 38.9968 55.442 40.2399 55.442 41.5137C55.442 44.6494 56.0403 47.6007 57.2379 50.3662C58.4355 53.1317 60.0583 55.5381 62.1051 57.585C64.1519 59.6318 66.5585 61.2536 69.3239 62.4512C70.0393 62.761 70.7672 63.0301 71.5074 63.2598H40.6149L55.7389 37.7842ZM115.733 63.2598H84.8424C85.5827 63.0301 86.3114 62.7611 87.027 62.4512C89.7921 61.2536 92.1981 59.6316 94.2448 57.585C96.2916 55.5381 97.9143 53.1317 99.1119 50.3662C100.31 47.6007 100.908 44.6494 100.908 41.5137C100.908 40.2419 100.807 39.0009 100.61 37.79L115.733 63.2598ZM84.7731 49.7451C84.1198 52.2276 83.2704 54.4494 82.2252 56.4092C81.18 58.3689 79.8302 60.394 78.1754 62.4844C76.5205 60.5681 75.1917 58.6297 74.1901 56.6699C73.1884 54.7101 72.3171 52.4017 71.5768 49.7451H84.7731ZM69.6823 49.7451C70.2049 52.0969 71.0324 54.4167 72.1647 56.7031C73.2969 58.9894 74.5384 60.851 75.8883 62.2881C72.1867 61.9396 68.8336 60.6546 65.8287 58.4336C62.8238 56.2125 60.5372 53.3163 58.9694 49.7451H69.6823ZM97.3805 49.7451C95.8127 53.3163 93.5261 56.2125 90.5211 58.4336C87.5162 60.6546 84.1632 61.9397 80.4615 62.2881C81.5938 60.8945 82.7258 59.054 83.858 56.7676C84.9903 54.4812 85.9273 52.1404 86.6676 49.7451H97.3805ZM69.2906 35.1123C69.0729 36.2445 68.9207 37.3442 68.8336 38.4111C68.7465 39.478 68.7028 40.5121 68.7028 41.5137C68.7028 42.5154 68.7465 43.5502 68.8336 44.6172C68.9207 45.6841 69.0729 46.7838 69.2906 47.916H58.2506C57.9458 47.0015 57.7061 45.978 57.5319 44.8457C57.3577 43.7134 57.2711 42.6024 57.2711 41.5137C57.2711 40.4251 57.3577 39.3147 57.5319 38.1826C57.706 37.0504 57.9458 36.0268 58.2506 35.1123H69.2906ZM85.2301 35.1123C85.4478 36.2445 85.6 37.3223 85.6871 38.3457C85.7742 39.369 85.818 40.425 85.818 41.5137C85.818 42.6025 85.7742 43.6592 85.6871 44.6826C85.6 45.706 85.4478 46.7838 85.2301 47.916H71.1198C70.902 46.7838 70.7498 45.706 70.6627 44.6826C70.5756 43.6592 70.5319 42.6025 70.5319 41.5137C70.5319 40.425 70.5756 39.369 70.6627 38.3457C70.7498 37.3223 70.902 36.2445 71.1198 35.1123H85.2301ZM98.0992 35.1123C98.4041 36.0268 98.6438 37.0504 98.818 38.1826C98.9921 39.3147 99.0787 40.4251 99.0787 41.5137C99.0787 42.6024 98.9922 43.7134 98.818 44.8457C98.6438 45.978 98.4041 47.0015 98.0992 47.916H87.0592C87.2769 46.7837 87.4291 45.6841 87.5162 44.6172C87.6033 43.5502 87.6471 42.5154 87.6471 41.5137C87.6471 40.5121 87.6033 39.478 87.5162 38.4111C87.4291 37.3442 87.2769 36.2446 87.0592 35.1123H98.0992ZM75.8883 20.6748C74.5383 22.3297 73.3188 24.2682 72.2301 26.4893C71.1415 28.7102 70.2919 30.9751 69.6823 33.2832H58.9694C60.5807 29.6684 62.8236 26.7828 65.6979 24.627C68.5721 22.4712 71.9689 21.1539 75.8883 20.6748ZM78.1754 20.5439C79.6996 22.2859 80.9952 24.1912 82.0621 26.2598C83.1291 28.3285 84.0327 30.6701 84.7731 33.2832H71.5768C72.3171 30.6701 73.2207 28.3285 74.2877 26.2598C75.3547 24.1911 76.6512 22.286 78.1754 20.5439ZM80.4615 20.6748C84.3375 21.1539 87.7237 22.4607 90.6198 24.5947C93.5157 26.7287 95.7692 29.625 97.3805 33.2832H86.6676C86.0579 30.9751 85.2084 28.7103 84.1198 26.4893C83.031 24.2682 81.8116 22.3297 80.4615 20.6748ZM92.2096 23.6396C90.6511 22.4189 88.9234 21.3985 87.027 20.5771C84.2617 19.3795 81.3109 18.7803 78.1754 18.7803C75.0399 18.7803 72.0892 19.3795 69.3239 20.5771C67.4248 21.3996 65.6946 22.4216 64.1344 23.6445L78.1735 0L92.2096 23.6396Z" fill="#000080"/>
</svg>
